<svg xmlns="http://www.w3.org/2000/svg" fill="none" height="64" viewBox="0 0 81 64" width="81"><path d="m5.72998 27c2.75 0 3.625.25 4.125 1.75h.125v-2.875c0-1.375-.625-1.875-2.25-1.875-1.375 0-1.75.25-1.875 1.625h-4.875c.125-1.75.25-2.375.75-3.125.875-1.125 2.375-1.5 5.75-1.5 4.12502 0 5.87502.625 6.75002 2.375.25.625.5 2 .5 3v9.5h-4.75002l.12502-2.375h-.12502c-.625 2-1.625 2.625-4.375 2.625-3.875 0-5.125-1.25-5.125-4.75 0-3.125 1.5-4.375 5.25-4.375zm2.125 6c1.625 0 2.125-.375 2.125-1.75 0-1.125-.625-1.375-2.5-1.375-1.625 0-2.25.375-2.25 1.5 0 1.25.5 1.625 2.625 1.625zm9.75002-11.875h4.75l-.25 2.5h.125c1.125-2.125 2-2.625 4.75-2.625 1.75 0 3 .375 3.875 1.25 1.25 1 1.625 2.5 1.625 6 0 3.75-.375 5.375-1.5 6.625-.875.875-2.125 1.25-4.125 1.25-2.625 0-3.75-.75-4.25-2.75h-.125v8.875h-4.875zm10 7.5c0-3.375-.375-4-2.5-4s-2.625.625-2.625 3.625c0 3.5.5 4.125 2.625 4.125s2.5-.625 2.5-3.75zm7.25-7.5h4.875l-.25 2.5h.125c1.125-2.125 2-2.625 4.625-2.625 1.875 0 3.125.375 4 1.25 1.25 1 1.625 2.5 1.625 6 0 3.75-.375 5.375-1.5 6.625-.875.875-2.125 1.25-4.25 1.25-2.5 0-3.625-.75-4.125-2.75h-.125v8.875h-5zm10.125 7.5c0-3.375-.375-4-2.5-4s-2.625.625-2.625 3.625c0 3.5.375 4.125 2.625 4.125 2 0 2.5-.625 2.5-3.75zm6.75-.375c0-3.25.375-4.75 1.5-5.75s2.875-1.375 5.625-1.375c5.375 0 7 1.5 7 6.875v1.375h-9.375v.625c0 2.125.5 2.75 2.5 2.75 1.75 0 2.25-.375 2.25-1.75h4.625v.25c0 1.25-.25 2.375-.875 3.125-.875 1.25-2.375 1.75-5.5 1.75-3.5 0-5.25-.5-6.375-1.625-1-1-1.375-2.625-1.375-6.25zm9.5-1.5c0-.25 0-.375 0-.5 0-1.5-.375-1.75-2.375-1.75-1.875 0-2.25.375-2.375 1.875v.375zm7-5.625h4.75l-.125 2.5c.875-1.875 1.875-2.625 3.75-2.625 1.375 0 2.375.5 2.875 1.25.75.875.875 1.75.875 4.25v1.125h-4.375c.125-.25.125-.375.125-.5 0-1.875-.25-2.375-1.375-2.375-.75 0-1.25.375-1.625 1.125-.125.375-.125.5-.125 1.5v8.5h-4.75z" fill="#1b1b1b"></path></svg>