<svg xmlns="http://www.w3.org/2000/svg" fill="none" height="64" viewBox="0 0 81 64" width="81"><path d="m18.44 41v-2c1.5.875 3.125 1.625 4.75 2.125zm7.25-.625c3.625 1.375 6.875 1.75 9.375 1.625-3.125.875-7.25.75-11.875-.875l2.5-.125zm51.125-14.375c-2 0-3.625-1.625-3.625-3.625s1.625-3 3.625-3 3.625 1 3.625 3-1.625 3.625-3.625 3.625zm-3.625 15v-13.75h7.25v13.75zm-9.25 0v-21l7.25-3.375v24.375zm-3.875-14.875c2.25 2.25 2.125 4.25 2.125 6.625 0 2.25.125 4.25-2.125 6.5s-6.25 2.125-6.25 2.125-4.125.125-6.375-2.125-2.125-4.25-2.125-6.5c0-2.375-.125-4.375 2.125-6.625s6.375-2.125 6.375-2.125 4-.125 6.25 2.125zm-5 9v-5c0-1.125-.875-1.375-1.375-1.375-.375 0-1.25.25-1.25 1.375v5c0 .5.25 1.5 1.25 1.5 1.125 0 1.375-1 1.375-1.5zm-13.25-9c2.25 2.25 2.125 4.25 2.125 6.5 0 2.375.125 4.375-2.125 6.625s-6.25 2.125-6.25 2.125-4.125.125-6.375-2.125-2.125-4.25-2.125-6.625c0-1.875-.125-3.625 1.25-5.375-2-1.5-7.25-4.75-12.5-7.375v6.875c1-1.75 2.75-2.75 4.75-2.75 3.375 0 5.125 2.25 5.125 4.625v11.75c-2.625-.875-5-2.125-7.25-3.75v-6c0-1-.125-1.875-1.25-1.875-1.25 0-1.375 1.375-1.375 2.25v3.75l-.625-.5c-2.875-2.375-5-4.375-6.62501-6.25v3.875c1.375 1.25 2.87501 2.5 4.75001 3.875.875.625 1.625 1.25 2.5 1.75v3.5h-7.25001v-9.125c-10.875-9.75-7.750002-13.875-7.750002-13.875 1.000002-2.25 5.375002-2.75 12.125012 0l2.875-1.375v2.625c3.625 1.875 8 3.875 12.75 7.625.125-.25.375-.5.625-.75 2.25-2.25 6.375-2.125 6.375-2.125s4-.125 6.25 2.125zm-33.25001-6.125 3.62501-1.625c-3.37501-1.25-6.37501-1.75-8.00001-.25-.5.375-1.75 3 4.375 9.875zm28.25001 15.125v-5c0-1.125-.875-1.375-1.25-1.375-.5 0-1.375.25-1.375 1.375v5c0 .5.25 1.5 1.375 1.5 1 0 1.25-1 1.25-1.5z" fill="#1b1b1b"></path></svg>