<svg xmlns="http://www.w3.org/2000/svg" fill="none" height="64" viewBox="0 0 82 64" width="82"><path d="m58.47 27.25c-.25.25-.5.625-.5 0 .375-1.5 1.75-3.75.5-4-2.125-.375-11 .625-11 0 0-.25 3.375-.375 4.75-1.125 1.25-1.125 1.375-1 1.375-1h3.375c3.375 0 4.75 1 1.5 6.125zm-14 2.875c-7.875 2.625-15.625 6.75-40.12503 18.875l6.50003-30.625c23.125 0 41.875-.75 42.25 2.75h-24.625l3.875 11.75c4.375-2.125 15.125-6.5 21.625-6.75 2.625-.125 3.75.375 3.25.75-.625.25-4.75.5-12.75 3.25zm-31.75-21.125h56.875l-8.5 40h-52.87503s50.25003-19.625 50.75003-20c0 0 4.5-6 1.875-8.5-.875-.75-2-.75-6.625-.75-.25-2.5-9.75-4-41.5-10.75z" fill="#1b1b1b"></path></svg>