<svg xmlns="http://www.w3.org/2000/svg" fill="none" height="64" viewBox="0 0 81 64" width="81"><path d="m80.41 29.875c0 8-13.625 14.5-30.5 14.5-3.125 0-6.125-.25-8.875-.625 1 0 1.875.125 2.875.125 16.875 0 30.5-7.125 30.5-15.875 0-3.75-2.375-7.125-6.375-9.75 7.5 2.625 12.375 6.875 12.375 11.625zm-74.12503-4.375c0 3.75 2.5 7.125 6.50003 9.75-7.50003-2.625-12.375028-6.875-12.375028-11.625-.125-8 13.500028-14.5 30.375028-14.625 3.125 0 6 .25 8.875.625-1 0-2 0-2.875 0-16.875 0-30.50003 7.125-30.50003 15.875zm7.50003 5 1.125-1.375s1.125 1.25 2.625 1.25c.75 0 1.5-.375 1.5-1.25 0-1.75-5-1.625-5-5 0-1.625 1.5-3 3.625-3 1.25 0 3.125.625 3.125 2.125v1h-1.75v-.5c0-.5-.75-.75-1.5-.75-.875 0-1.5.375-1.5 1.125 0 1.75 5 1.375 5 4.875 0 1.75-1.25 3.125-3.5 3.125-2.375 0-3.75-1.625-3.75-1.625zm15.125-9.125h2v6.875c0 2.375-1.625 4-4.125 4-2.625 0-4.25-1.625-4.25-4v-6.875h2v6.75c0 1.375.875 2.25 2.125 2.25 1.375 0 2.25-.875 2.25-2.25zm4.375 10.625v-9h-1v-1.625h4.875c2 0 3.375 1.375 3.375 3.375 0 2.125-1.375 3.625-3.375 3.625h-2v3.625zm1.875-5.375h1.625c1.125 0 1.75-.75 1.75-1.875 0-1-.625-1.75-1.75-1.75h-1.625zm7.125 5.375v-9h-.875v-1.625h4.875c2 0 3.375 1.375 3.375 3.375 0 2.125-1.375 3.625-3.375 3.625h-2v3.625zm2-5.375h1.625c1.125 0 1.75-.75 1.75-1.875 0-1-.625-1.75-1.75-1.75h-1.625zm7.125 4.375v-7.625c0-.25-.125-.375-.25-.375h-.625v-1.625h1.875c.75 0 1 .25 1 1v7.625c0 .25.125.375.375.375h2.25c.25 0 .375-.125.375-.375v-.625h1.75v1.625c0 .75-.25 1-1 1h-4.75c-.625 0-1-.25-1-1zm8 0v-8h-1v-1.625h6.375c.75 0 1.125.25 1.125 1v1.625h-1.875v-.625c0-.25-.125-.375-.25-.375h-2.375v2.75h3.375v1.75h-3.375v2.5c0 .25 0 .375.25.375h2.5c.125 0 .25-.125.25-.375v-.625h1.875v1.625c0 .75-.375 1-1 1h-4.875c-.75 0-1-.25-1-1zm7.375-9.5h-.375v-.125h.875v.125h-.375v.75h-.125zm.625-.125h.375l.25.625.25-.625h.25v.875h-.125v-.75l-.375.75h-.125l-.25-.75v.75h-.25z" fill="#1b1b1b"></path></svg>