<svg xmlns="http://www.w3.org/2000/svg" fill="none" height="64" viewBox="0 0 82 64" width="82"><path d="m14.92 41c-4.25 0-5.75-3.75-5.75-3.75l-7-13.875s-1.249999-2.375 1.375-2.375h4c1.375 0 1.75 1.125 2.375 2.375l4.625 9.25s.625 1.625 2.625 1.625 2.625-1.625 2.625-1.625l4.625-9.25c.625-1.25 1-2.375 2.375-2.375h4c2.625 0 1.375 2.375 1.375 2.375l-7 13.875s-1.5 3.75-5.75 3.75zm49.375 0c-4.25 0-5.75-3.75-5.75-3.75l-7-13.875s-1.25-2.375 1.375-2.375h4c1.375 0 1.75 1.125 2.375 2.375l4.625 9.25s.625 1.625 2.625 1.625 2.625-1.625 2.625-1.625l4.625-9.25c.625-1.25 1-2.375 2.375-2.375h4.125c2.5 0 1.25 2.375 1.25 2.375l-7 13.875s-1.5 3.75-5.75 3.75zm-20.25-20c4.25 0 5.875 3.875 5.875 3.875l6.875 13.875s1.375 2.25-1.25 2.25h-4.125c-1.25 0-1.625-1-2.375-2.25l-4.5-9.25s-.625-1.625-2.625-1.625-2.625 1.625-2.625 1.625l-4.625 9.25c-.75 1.25-1.125 2.25-2.375 2.25h-4.125c-2.625 0-1.25-2.25-1.25-2.25l7-13.875s1.5-3.875 5.75-3.875z" fill="#1b1b1b"></path></svg>