<svg xmlns="http://www.w3.org/2000/svg" width="248" height="269" viewBox="0 0 248 269" fill="none"><path d="M143.647 52.534C144.46 51.4928 144.61 51.3354 145.651 52.1481L158.794 62.4062C159.835 63.2188 161.904 65.1081 161.091 66.1493L158.147 69.9214L140.703 56.3061L143.647 52.534Z" fill="black" fill-opacity="0.03"></path><path d="M95.2861 60.5472C95.7923 59.8986 95.5163 59.1613 96.0455 59.5743L110.127 70.5651C110.639 70.9648 112.004 72.5243 111.484 73.19L109.326 75.9551L93.1279 63.3123L95.2861 60.5472Z" fill="black" fill-opacity="0.03"></path><path d="M223.477 259.51L205.587 232.637L214.033 221.815L212.787 220.843L204.58 231.357L168.736 178.852C168.395 178.339 167.178 177.224 166.7 176.851L147.106 161.557C146.628 161.184 145.843 161.204 145.453 161.668L103.372 209.108C102.831 209.73 102.448 210.749 102.593 211.549L115.211 255.347C115.349 255.839 116.005 257.532 115.619 258.027L109.531 265.827L92.2671 233.154L91.9253 234.26L108.731 266.852L107.679 268.2C107.279 268.712 105.441 267.689 105.123 267.111L84.1021 229.363C84.1021 229.363 78.2999 235.354 73.5959 237.615C72.8528 237.969 70.8145 238.328 70.183 237.835L58.8154 228.963C58.1668 228.456 58.3104 226.618 58.4732 225.812C59.5245 220.699 63.9242 214.218 63.9242 214.218L23.1325 203.419C22.4947 203.251 22.551 202.58 22.9506 202.068L24.0031 200.72L58.9319 208.509L59.4444 207.535L24.8024 199.696L30.8907 191.896C31.2637 191.418 31.7267 190.543 32.2545 190.57L76.5862 191.168C77.3972 191.115 78.2814 190.404 78.7535 189.729L114.453 137.445C114.792 136.94 114.603 136.161 114.125 135.788L94.5308 120.494C94.0529 120.121 94.0108 120.281 93.4434 120.058L35.1544 99.09L43.3608 88.5757L42.1148 87.6032L33.6685 98.4247L1.90672 86.5435C1.29183 86.3107 0.698998 85.3811 1.09866 84.8691L6.78602 77.1953C7.18568 76.6832 7.94047 76.1737 8.60323 76.1691L83.4868 75.4534L84.2403 74.5584C84.4085 73.9206 85.3078 73.3315 85.7074 72.8195L93.1412 63.2952L108.298 75.1254C108.298 75.1254 108.483 75.8739 109.168 76.0517L124.662 76.2243C125.281 76.2405 126.081 75.8488 126.441 75.3879C126.801 74.9271 127.349 74.119 127.654 73.5878L132.101 66.869C132.406 66.3378 133.326 65.7925 133.712 65.2975L139.747 57.5654L157.191 71.1808L151.156 78.9128C150.783 79.3907 150.766 79.6243 151.381 79.6101L160.636 79.2252C161.251 79.211 161.962 78.7223 162.267 78.1911C165.805 72.3557 185.269 40.9087 207.848 19.9687C225.029 4.0442 237.131 0.85546 243.03 0.405938C244.513 0.300219 245.823 0.416386 246.454 0.523804C246.267 0.762763 247.057 2.28522 247.314 3.74981C248.324 9.56444 248.105 22.0558 236.83 42.5898C222 69.5782 196.337 96.1588 191.505 101.012C191.081 101.45 190.967 102.405 191.103 103.005L193.319 112.343C193.454 112.943 194.38 113.446 194.767 112.951L200.801 105.219L219.492 119.807L213.457 127.539C213.084 128.017 211.43 127.989 210.988 128.414L204.625 133.61C204.184 134.035 203.328 134.603 202.969 135.064C202.609 135.525 202.334 136.299 202.5 136.896L206.339 151.895C206.661 152.503 207.33 152.421 207.381 152.461L225.235 166.396L217.801 175.92C217.401 176.432 215.734 176.422 215.139 176.727L213.515 176.942L230.87 249.651C231.026 250.295 230.732 251.164 230.333 251.676L224.662 259.364C224.263 259.876 223.848 260.019 223.473 259.479L223.477 259.51Z" fill="black" fill-opacity="0.03"></path><path d="M204.701 100.188C205.514 99.1464 206.381 99.5486 207.422 100.361L220.565 110.619C221.606 111.432 224.204 113.734 223.391 114.775L220.447 118.548L201.757 103.96L204.701 100.188Z" fill="black" fill-opacity="0.03"></path><path d="M211.164 150.992C211.671 150.343 210.814 149.153 211.343 149.566L225.425 160.557C225.937 160.956 227.882 162.969 227.362 163.635L225.204 166.4L209.006 153.757L211.164 150.992Z" fill="black" fill-opacity="0.03"></path></svg>