<svg xmlns="http://www.w3.org/2000/svg" width="260" height="192" viewBox="0 0 260 192" fill="none"><path d="M116.859 0L77.4368 131.877L61.9495 72.7437C80.4091 72.7437 95.2708 77.9062 106.534 88.2311C118.111 98.556 123.899 112.948 123.899 131.408C123.899 149.555 117.954 164.104 106.065 175.054C94.4886 186.005 79.7834 191.48 61.9495 191.48C44.1155 191.48 29.2539 186.005 17.3646 175.054C5.78821 164.104 0 149.555 0 131.408C0 126.402 0.312876 121.396 0.938628 116.39C1.87726 111.384 3.59807 105.283 6.10108 98.0866C8.91697 90.8905 12.9844 81.5042 18.3032 69.9278L51.1552 0H116.859ZM252.96 0L213.538 131.877L198.051 72.7437C216.51 72.7437 231.372 77.9062 242.635 88.2311C254.212 98.556 260 112.948 260 131.408C260 149.555 254.055 164.104 242.166 175.054C230.59 186.005 215.884 191.48 198.051 191.48C180.217 191.48 165.355 186.005 153.466 175.054C141.889 164.104 136.101 149.555 136.101 131.408C136.101 126.402 136.414 121.396 137.04 116.39C137.978 111.384 139.699 105.283 142.202 98.0866C145.018 90.8905 149.085 81.5042 154.404 69.9278L187.256 0H252.96Z" fill="#F4F4F4"></path></svg>